{"glyphs":{":":{"x_min":0,"x_max":197,"ha":197,"o":"m 62 313 q 62 332 74 343 q 85 354 105 354 q 125 354 136 343 q 147 332 147 313 q 147 293 136 282 q 125 271 105 271 q 85 271 74 282 q 62 293 62 313 z m 25 32 q 25 51 36 62 q 48 73 68 73 q 88 73 99 62 q 110 51 110 32 q 110 12 99 1 q 88 -10 68 -10 q 48 -10 36 1 q 25 12 25 32 z"},"$":{"x_min":0,"x_max":460,"ha":460,"o":"m 450 595 l 437 484 q 437 480 432 480 q 426 480 425 484 q 421 541 398 580 q 374 619 320 621 l 274 358 l 296 343 q 353 305 383 271 q 413 237 413 186 q 413 168 411 158 q 399 90 346 43 q 294 -4 209 -11 l 192 -109 q 191 -114 183 -114 q 178 -114 174 -112 q 171 -109 172 -105 l 188 -12 l 183 -12 q 149 -12 118 -4 q 87 3 53 22 q 45 27 47 41 l 61 173 q 61 178 66 178 q 72 178 72 173 q 74 106 104 58 q 133 11 191 5 l 242 296 l 234 302 q 197 329 176 348 q 154 366 139 392 q 124 418 124 452 q 124 466 127 481 q 140 547 189 586 q 238 626 302 634 l 317 722 q 318 727 325 727 q 330 727 334 724 q 338 722 337 718 l 323 636 l 330 636 q 383 636 438 612 q 451 605 450 595 z m 256 372 l 299 620 q 244 615 216 573 q 188 531 188 483 q 188 448 206 422 q 223 395 256 372 z m 345 152 q 345 194 323 224 q 301 254 261 283 l 212 4 q 260 5 296 34 q 332 63 342 121 q 345 138 345 152 z"},"?":{"x_min":0,"x_max":295,"ha":295,"o":"m 125 274 q 125 296 128 309 q 133 340 150 360 q 166 381 197 407 q 230 434 248 457 q 267 480 274 517 q 276 526 276 542 q 276 574 260 592 q 244 611 214 611 q 188 611 176 598 q 165 586 159 565 q 152 545 144 534 q 136 522 119 522 q 105 522 98 530 q 91 538 91 550 q 91 555 92 558 q 96 586 134 606 q 173 625 221 625 q 273 625 304 600 q 335 576 335 532 q 335 519 332 505 q 324 465 302 438 q 280 411 259 394 q 238 377 232 372 q 192 338 174 310 q 157 283 151 248 q 146 229 148 191 q 148 187 143 186 q 138 186 137 190 q 125 228 125 274 z m 69 32 q 69 51 80 62 q 92 73 112 73 q 132 73 143 62 q 154 51 154 32 q 154 12 143 1 q 132 -10 112 -10 q 92 -10 80 1 q 69 12 69 32 z"},"<":{"x_min":0,"x_max":407,"ha":407,"o":"m 377 42 q 377 22 370 25 l 36 173 q 31 176 31 190 q 31 205 36 207 l 370 354 q 373 356 375 351 q 377 346 377 338 q 377 318 370 314 l 81 190 l 370 66 q 377 63 377 42 z"},"'":{"x_min":0,"x_max":129,"ha":129,"o":"m 108 609 q 108 618 128 627 q 147 636 166 639 q 186 642 185 637 l 76 306 q 75 303 70 302 q 65 302 65 304 z"},"=":{"x_min":0,"x_max":468,"ha":468,"o":"m 29 261 q 29 268 30 274 q 32 279 33 279 l 434 279 q 436 279 438 273 q 439 267 439 260 q 439 253 438 246 q 436 240 434 240 l 34 240 q 32 240 30 246 q 29 253 29 261 z m 29 121 q 29 128 30 134 q 32 139 33 139 l 434 139 q 436 139 438 133 q 439 127 439 120 q 439 113 438 106 q 436 100 434 100 l 34 100 q 32 100 30 106 q 29 113 29 121 z"},"a":{"x_min":0,"x_max":434,"ha":434,"o":"m 412 78 q 415 78 417 74 q 419 71 417 69 q 383 30 356 10 q 330 -9 305 -9 q 288 -9 280 2 q 271 12 271 36 q 271 56 277 89 l 295 193 q 249 100 192 44 q 134 -13 81 -13 q 19 -13 19 61 q 19 69 21 91 q 31 162 74 234 q 117 306 175 352 q 233 399 284 399 q 303 399 321 392 q 339 385 350 371 q 368 386 374 407 q 375 410 381 409 q 387 408 386 406 l 328 89 q 325 74 325 62 q 325 31 343 31 q 365 31 409 77 q 410 78 412 78 z m 309 277 q 312 290 311 300 q 311 330 296 347 q 280 364 249 364 q 214 363 178 332 q 141 302 114 250 q 87 199 78 136 q 75 114 75 96 q 75 36 117 36 q 153 36 194 73 q 234 110 266 166 q 298 223 309 277 z"},"L":{"x_min":0,"x_max":496,"ha":496,"o":"m 12 12 q 44 12 60 17 q 76 22 84 36 q 92 51 97 81 l 179 544 q 182 564 182 575 q 182 598 168 606 q 155 613 118 613 q 116 613 116 619 q 116 625 118 625 l 160 624 q 196 622 218 622 q 242 622 280 624 l 321 625 q 323 625 323 619 q 323 613 321 613 q 289 613 274 608 q 258 602 250 588 q 242 573 236 543 l 155 85 q 152 67 152 55 q 152 34 165 26 q 178 19 212 19 l 313 19 q 368 19 404 53 q 441 87 465 152 q 465 154 469 154 q 472 154 475 152 q 478 151 477 150 q 455 77 445 15 q 443 7 440 4 q 436 0 429 0 l 12 0 q 10 0 10 6 q 10 12 12 12 z"},"3":{"x_min":0,"x_max":392,"ha":392,"o":"m 246 337 q 295 333 322 299 q 348 265 348 213 q 348 191 344 172 q 331 90 275 39 q 219 -12 144 -12 q 59 -12 12 65 l 11 67 q 11 70 15 72 q 19 75 21 73 q 40 46 70 30 q 101 15 133 15 q 194 15 232 59 q 270 103 282 172 q 286 191 286 213 q 286 324 146 324 q 143 324 143 331 q 143 340 146 340 q 226 340 266 376 q 306 412 317 476 q 320 494 320 510 q 320 552 298 574 q 276 597 237 597 q 198 597 160 576 q 123 556 102 518 l 98 516 q 94 516 92 518 q 90 521 91 524 q 121 577 167 606 q 213 636 266 636 q 322 636 352 605 q 381 574 381 524 q 381 466 343 413 q 305 360 246 337 z"},";":{"x_min":0,"x_max":222,"ha":222,"o":"m 147 313 q 147 293 136 282 q 125 271 105 271 q 85 271 74 282 q 62 293 62 313 q 62 332 74 343 q 85 354 105 354 q 125 354 136 343 q 147 332 147 313 z m 127 8 q 127 -79 16 -159 q 15 -160 13 -160 q 10 -160 8 -156 q 6 -152 9 -150 q 46 -122 66 -94 q 87 -65 92 -32 q 94 -20 94 -15 q 94 -6 91 2 q 82 -8 64 -8 q 46 -8 36 4 q 25 15 25 31 q 25 50 38 60 q 50 71 72 71 q 97 71 112 54 q 127 38 127 8 z"},"J":{"x_min":0,"x_max":280,"ha":280,"o":"m -21 -193 q -23 -193 -26 -188 q -28 -184 -26 -182 q 19 -155 46 -100 q 72 -46 88 40 l 177 544 q 180 562 180 575 q 180 598 166 606 q 153 613 115 613 q 113 613 113 619 q 113 625 115 625 l 156 624 q 194 622 216 622 q 243 622 281 624 l 320 625 q 323 625 323 619 q 323 613 320 613 q 288 613 272 607 q 256 601 248 586 q 240 572 235 542 l 151 67 q 136 -12 116 -60 q 96 -108 64 -138 q 32 -169 -20 -193 z"},"V":{"x_min":0,"x_max":593,"ha":593,"o":"m 659 613 q 629 613 606 597 q 583 581 559 536 l 282 1 q 279 -3 271 -3 q 261 -3 260 1 l 143 542 q 135 581 121 597 q 107 613 81 613 q 79 613 79 619 q 79 625 81 625 l 118 624 q 144 622 158 622 q 184 622 220 624 l 259 625 q 262 625 262 619 q 262 613 259 613 q 230 613 215 604 q 200 595 200 572 q 200 559 202 552 l 304 89 l 539 542 q 551 565 551 580 q 551 597 536 605 q 521 613 489 613 q 486 613 486 619 q 486 625 489 625 l 525 624 q 555 622 581 622 q 597 622 621 624 l 659 625 q 663 625 663 619 q 663 613 659 613 z"},"\"":{"x_min":0,"x_max":320,"ha":320,"o":"m 129 609 q 129 618 148 627 q 168 636 188 639 q 207 642 206 637 l 97 306 q 96 303 91 302 q 86 302 86 304 z m 274 609 q 274 618 294 627 q 313 636 332 639 q 352 642 351 637 l 242 306 q 241 303 236 302 q 231 302 231 304 z"},"7":{"x_min":0,"x_max":392,"ha":392,"o":"m 56 14 l 385 569 q 387 572 386 574 q 386 576 382 576 q 249 576 196 572 q 143 568 124 555 q 105 542 90 508 q 89 506 86 506 q 83 506 80 508 q 78 509 79 511 l 134 653 q 134 654 138 654 q 147 654 146 650 q 143 643 143 637 q 143 630 152 628 q 160 625 183 625 l 422 625 q 426 625 428 620 q 430 615 428 612 l 120 12 q 114 0 104 0 l 62 0 q 57 0 54 4 q 52 9 56 14 z"},"S":{"x_min":0,"x_max":462,"ha":462,"o":"m 53 22 q 45 27 47 41 l 61 173 q 61 178 66 178 q 72 178 72 173 q 74 101 108 52 q 141 4 208 4 q 257 4 294 32 q 332 61 342 121 q 345 138 345 151 q 345 200 316 232 q 288 265 234 302 q 197 329 176 348 q 154 366 139 392 q 124 418 124 452 q 124 466 127 481 q 137 531 168 566 q 198 601 241 618 q 284 636 330 636 q 383 636 438 612 q 451 605 450 595 l 437 484 q 437 480 432 480 q 426 480 425 484 q 421 543 396 582 q 371 621 314 621 q 271 621 242 600 q 214 578 200 546 q 187 514 187 483 q 187 452 202 428 q 217 403 238 386 q 259 369 296 343 q 353 305 383 271 q 413 237 413 186 q 413 168 411 158 q 398 85 338 36 q 278 -12 183 -12 q 149 -12 118 -4 q 87 3 53 22 z"},"}":{"x_min":0,"x_max":261,"ha":261,"o":"m 231 642 q 231 608 218 528 q 204 449 204 406 q 204 364 216 340 q 228 315 257 310 q 259 310 259 304 q 259 297 257 297 q 208 291 182 235 q 157 179 139 79 q 124 -7 106 -48 q 89 -88 61 -102 q 33 -117 -20 -117 q -23 -117 -23 -111 q -23 -105 -20 -105 q 14 -105 37 -78 q 60 -50 69 1 q 93 121 108 172 q 122 223 147 252 q 172 280 224 303 q 184 324 168 348 q 152 372 152 416 q 152 445 159 496 q 166 546 176 607 q 180 633 180 644 q 180 677 166 695 q 152 713 126 713 q 123 713 123 719 q 123 725 126 725 q 186 725 208 708 q 231 692 231 642 z"},"Z":{"x_min":0,"x_max":547,"ha":547,"o":"m 22 0 q 18 0 17 4 q 16 9 18 13 l 485 600 q 490 605 490 606 q 489 608 483 608 q 323 608 262 602 q 200 595 174 574 q 147 553 117 494 q 115 490 110 492 q 105 493 107 497 l 171 655 q 171 656 174 656 q 177 656 180 654 q 183 653 182 651 q 180 646 180 639 q 180 630 190 628 q 199 625 227 625 l 561 625 q 565 625 566 620 q 568 615 566 612 l 104 27 q 100 22 100 20 q 101 19 106 19 l 316 19 q 387 19 426 45 q 466 71 493 136 q 493 139 497 139 q 500 139 502 138 q 505 136 504 134 l 469 8 q 469 5 466 2 q 463 -2 460 -2 q 325 0 22 0 z"},"x":{"x_min":0,"x_max":421,"ha":421,"o":"m 413 351 q 413 338 405 330 q 397 322 385 322 q 372 322 359 333 q 348 342 339 342 q 316 342 296 312 l 232 219 l 271 85 q 281 53 292 43 q 304 33 318 33 q 345 33 384 75 q 385 76 387 76 q 391 76 393 72 q 395 69 393 67 q 358 28 332 10 q 305 -9 284 -9 q 262 -9 248 4 q 235 16 224 53 l 192 162 l 130 63 q 102 18 87 4 q 72 -9 49 -9 q 29 -9 13 6 q -3 21 -1 40 q 1 51 9 57 q 17 63 28 63 q 37 63 42 60 q 47 58 53 53 q 64 44 74 44 q 96 44 117 73 l 187 178 l 153 292 q 143 328 130 340 q 117 352 102 352 q 76 352 36 311 q 35 310 33 310 q 30 310 28 314 q 25 317 28 319 q 63 358 90 376 q 116 395 137 395 q 158 395 174 380 q 190 364 201 325 l 227 237 l 282 323 q 310 368 325 382 q 340 395 362 395 q 381 395 397 382 q 413 369 413 351 z"},")":{"x_min":0,"x_max":280,"ha":280,"o":"m 251 430 q 251 370 239 304 q 214 162 144 49 q 75 -64 -22 -117 l -23 -117 q -26 -117 -28 -114 q -31 -110 -28 -109 q 51 -38 101 64 q 151 167 175 304 q 190 388 190 460 q 190 615 119 717 l 119 718 q 119 721 122 724 q 124 726 126 725 q 187 684 219 607 q 251 530 251 430 z"},"&":{"x_min":0,"x_max":751,"ha":751,"o":"m 753 349 q 753 324 740 300 q 726 277 703 262 q 680 247 654 247 q 626 247 582 268 q 564 131 490 60 q 417 -12 308 -12 q 240 -12 186 20 q 133 53 103 107 q 73 161 73 224 q 73 251 79 278 q 91 331 125 374 q 159 417 205 441 q 251 465 298 465 q 348 465 380 437 q 440 504 440 554 q 440 573 434 584 q 428 594 417 603 q 409 611 405 617 q 401 623 401 634 q 401 649 410 658 q 419 667 433 667 q 455 667 469 647 q 483 627 483 594 q 483 538 441 480 q 399 422 340 372 q 281 321 192 254 l 134 209 q 144 155 175 114 q 206 72 250 50 q 293 27 341 27 q 432 27 492 91 q 553 155 566 275 l 547 285 q 505 307 480 318 q 455 328 432 328 q 418 328 410 322 q 401 316 401 307 q 401 295 409 279 q 417 261 417 253 q 417 244 411 236 q 405 229 393 229 q 381 229 374 236 q 366 244 366 261 q 366 287 382 311 q 399 335 426 350 q 452 364 480 364 q 505 364 532 354 q 558 343 597 323 q 629 306 652 296 q 675 287 694 287 q 707 287 716 292 q 724 298 724 306 q 724 315 714 329 q 708 337 705 343 q 702 349 702 357 q 702 380 728 380 q 753 380 753 349 z m 129 256 q 129 245 131 225 q 158 247 187 269 q 278 339 329 385 q 304 438 247 438 q 208 438 178 402 q 147 365 134 310 q 129 278 129 256 z"},"_":{"x_min":0,"x_max":363,"ha":363,"o":"m -12 -55 q -12 -48 -11 -42 q -10 -36 -8 -36 l 311 -36 q 313 -36 314 -42 q 316 -49 316 -56 q 316 -63 314 -70 q 313 -76 311 -76 l -7 -76 q -9 -76 -10 -70 q -12 -63 -12 -55 z"},"v":{"x_min":0,"x_max":432,"ha":432,"o":"m 94 104 q 94 137 108 172 q 121 208 147 262 l 169 310 q 173 318 173 325 q 173 335 159 335 l 108 335 q 81 335 68 332 q 56 328 48 318 q 41 307 33 283 q 32 280 27 280 q 24 280 22 282 q 21 284 22 287 q 38 333 48 353 q 59 373 74 380 q 90 387 121 387 l 210 387 q 221 387 221 383 q 221 381 218 375 q 187 304 166 238 q 145 171 145 128 q 145 85 164 60 q 182 36 214 36 q 259 36 301 80 q 343 124 361 195 q 370 230 370 253 q 370 282 362 298 q 353 313 340 324 q 329 334 322 342 q 316 350 316 362 q 316 379 328 388 q 340 396 355 396 q 378 396 389 370 q 400 344 400 302 q 400 270 396 245 q 385 170 350 111 q 316 52 271 20 q 226 -13 185 -13 q 142 -13 118 21 q 94 55 94 104 z"},"O":{"x_min":0,"x_max":651,"ha":651,"o":"m 63 240 q 63 276 69 313 q 85 406 135 480 q 185 553 257 594 q 329 636 409 636 q 480 636 531 604 q 582 571 608 514 q 635 458 635 387 q 635 348 628 313 q 611 219 560 145 q 508 71 435 30 q 362 -12 284 -12 q 215 -12 165 20 q 115 53 89 110 q 63 168 63 240 z m 561 260 q 571 309 571 359 q 571 433 547 490 q 523 547 477 580 q 431 612 369 612 q 280 612 218 546 q 156 480 135 366 q 126 318 126 273 q 126 200 150 141 q 173 82 218 48 q 263 14 326 14 q 413 14 475 78 q 537 142 561 260 z"},"(":{"x_min":0,"x_max":280,"ha":280,"o":"m 69 178 q 69 238 81 304 q 106 446 176 559 q 245 672 342 725 l 343 725 q 346 725 348 722 q 351 718 348 717 q 269 646 219 544 q 169 441 145 304 q 130 220 130 148 q 130 -7 201 -109 l 201 -110 q 201 -113 198 -116 q 196 -118 194 -117 q 133 -76 101 1 q 69 78 69 178 z"},"C":{"x_min":0,"x_max":586,"ha":586,"o":"m 59 245 q 59 276 66 318 q 83 411 139 484 q 195 556 274 596 q 352 636 434 636 q 476 636 516 626 q 556 617 579 601 q 585 596 586 592 q 588 588 587 577 l 577 466 q 576 462 571 462 q 566 462 566 466 q 559 542 514 578 q 470 614 396 614 q 332 614 278 581 q 224 548 188 488 q 151 427 138 346 q 131 305 131 262 q 131 188 154 128 q 178 69 222 35 q 266 1 323 1 q 381 1 435 38 q 489 76 532 151 q 534 153 535 153 q 538 153 540 151 q 543 149 542 147 l 512 40 q 509 27 506 23 q 503 19 494 16 q 407 -13 317 -13 q 184 -13 122 60 q 59 134 59 245 z"},"W":{"x_min":0,"x_max":847,"ha":847,"o":"m 916 613 q 884 613 856 594 q 828 575 809 533 l 575 0 q 574 -4 565 -4 q 557 -4 556 0 l 476 521 l 243 0 q 243 -4 234 -4 q 225 -4 224 0 l 148 543 q 142 583 127 598 q 112 613 83 613 q 81 613 81 619 q 81 625 83 625 l 118 624 q 142 622 158 622 q 191 622 229 624 l 264 625 q 267 625 267 619 q 267 613 264 613 q 233 613 220 603 q 206 593 206 566 q 206 561 208 545 l 270 110 l 500 625 q 502 628 510 628 q 520 628 520 625 l 601 109 l 790 538 q 802 569 802 581 q 802 598 788 606 q 774 613 743 613 q 740 613 740 619 q 740 625 743 625 l 782 624 q 812 622 835 622 q 853 622 877 624 l 916 625 q 918 625 918 619 q 918 613 916 613 z"},"A":{"x_min":0,"x_max":600,"ha":600,"o":"m 563 0 q 548 0 518 2 q 482 4 462 4 q 441 4 409 2 q 379 0 365 0 q 362 0 362 6 q 362 12 365 12 q 402 12 416 22 q 431 31 431 56 q 431 73 429 84 l 389 330 l 238 330 l 129 132 q 98 74 98 48 q 98 27 114 20 q 130 12 163 12 q 167 12 166 6 q 166 0 162 0 q 151 0 117 2 q 79 4 58 4 q 37 4 9 2 q -19 0 -34 0 q -38 0 -38 6 q -38 12 -34 12 q -5 12 28 38 q 61 63 96 123 l 382 635 q 384 638 389 638 q 398 638 400 633 l 488 84 q 493 53 499 39 q 505 25 520 18 q 534 12 563 12 q 567 12 567 6 q 567 0 563 0 z m 249 351 l 386 351 l 355 544 z"},"f":{"x_min":0,"x_max":262,"ha":262,"o":"m 391 674 q 388 659 378 652 q 369 644 356 644 q 342 644 336 652 q 329 660 322 678 q 316 694 309 702 q 302 711 288 711 q 249 711 221 643 q 193 575 173 439 l 164 377 l 228 381 l 267 383 q 276 383 274 374 q 271 364 260 352 q 250 341 240 342 l 219 345 q 186 351 160 352 l 106 -21 q 92 -118 74 -172 q 55 -227 28 -251 q 2 -275 -40 -275 q -73 -275 -90 -262 q -106 -250 -103 -232 q -102 -218 -92 -210 q -82 -201 -67 -201 q -52 -201 -45 -209 q -38 -217 -33 -232 q -29 -245 -24 -251 q -20 -257 -10 -257 q 2 -257 10 -242 q 19 -226 28 -182 q 37 -138 50 -47 l 101 306 q 103 326 103 332 q 103 351 92 356 q 81 361 46 361 q 43 361 43 366 q 43 368 44 370 q 46 373 47 373 q 82 373 98 383 q 113 393 117 418 q 137 541 162 606 q 186 672 222 699 q 259 726 319 726 q 354 726 374 710 q 393 695 391 674 z"},"Q":{"x_min":0,"x_max":651,"ha":651,"o":"m 685 -184 q 640 -196 602 -196 q 542 -196 478 -144 q 414 -92 368 1 q 329 -12 284 -12 q 215 -12 165 20 q 115 53 89 110 q 63 168 63 240 q 63 276 69 313 q 85 406 135 480 q 185 553 257 594 q 329 636 409 636 q 480 636 531 604 q 582 571 608 514 q 635 458 635 387 q 635 348 628 313 q 611 218 558 143 q 506 68 432 28 q 456 -31 493 -78 q 530 -125 571 -151 q 612 -177 646 -177 q 663 -177 681 -173 q 684 -172 686 -177 q 687 -182 685 -184 z m 126 273 q 126 200 150 141 q 173 82 218 48 q 263 14 326 14 q 413 14 475 78 q 537 142 561 260 q 571 309 571 359 q 571 433 547 490 q 523 547 477 580 q 431 612 369 612 q 280 612 218 546 q 156 480 135 366 q 126 318 126 273 z"},"w":{"x_min":0,"x_max":618,"ha":618,"o":"m 586 304 q 586 272 582 245 q 572 171 540 112 q 508 52 468 20 q 427 -13 391 -13 q 364 -13 343 6 q 322 24 309 57 q 279 23 247 5 q 215 -13 185 -13 q 142 -13 119 19 q 96 51 96 100 q 96 137 112 180 q 128 223 156 282 q 160 291 164 298 q 167 305 169 310 q 173 318 173 325 q 173 335 159 335 l 108 335 q 81 335 68 332 q 56 328 48 318 q 41 307 33 283 q 32 280 27 280 q 24 280 22 282 q 21 284 22 287 q 38 333 48 353 q 59 373 74 380 q 90 387 121 387 l 210 387 q 221 387 221 383 q 221 381 218 375 q 193 319 174 260 q 156 201 150 157 q 148 135 148 126 q 148 83 166 58 q 183 33 214 33 q 235 33 258 46 q 280 58 301 81 q 291 117 291 165 q 291 201 297 237 q 307 304 328 348 q 350 392 375 392 q 393 392 402 374 q 411 356 411 326 q 411 314 407 284 q 389 172 336 93 q 365 33 419 33 q 444 33 470 54 q 497 74 518 111 q 540 148 548 195 q 552 219 552 242 q 552 274 544 292 q 536 310 521 329 q 512 338 508 345 q 503 352 503 362 q 503 379 515 388 q 527 396 542 396 q 586 396 586 304 z m 313 207 q 313 155 327 115 q 366 177 378 255 q 380 275 380 281 q 380 304 374 317 q 367 330 354 330 q 340 330 330 310 q 321 290 317 261 q 313 236 313 207 z"},"-":{"x_min":0,"x_max":305,"ha":305,"o":"m 27 192 q 27 211 30 212 l 280 258 q 284 259 284 235 q 284 214 280 214 l 32 167 q 30 166 28 174 q 27 183 27 192 z"},"E":{"x_min":0,"x_max":514,"ha":514,"o":"m 512 616 l 503 559 q 499 523 493 492 q 492 488 486 489 q 480 490 481 493 q 482 501 482 516 q 482 559 462 584 q 442 610 405 610 l 323 610 q 291 610 276 605 q 260 600 253 586 q 246 573 241 543 l 204 336 l 345 336 q 384 336 402 352 q 421 367 428 406 q 428 409 434 409 q 436 409 438 408 q 441 406 440 404 q 436 376 431 356 l 425 325 l 419 286 q 419 283 411 232 q 410 228 404 228 q 398 229 399 233 q 402 250 402 263 q 402 291 387 303 q 372 315 338 315 l 201 315 l 160 85 q 157 67 157 55 q 157 34 170 26 q 183 19 219 19 l 328 19 q 366 19 402 55 q 438 91 458 149 q 459 152 464 151 q 470 150 469 147 q 454 100 438 15 q 436 7 432 4 q 429 0 422 0 l 16 0 q 14 0 14 6 q 14 12 16 12 q 49 12 64 17 q 80 22 88 36 q 95 50 101 81 l 183 544 q 186 564 186 576 q 186 598 173 606 q 160 613 123 613 q 120 613 120 619 q 120 625 123 625 l 506 625 q 514 625 512 616 z"},"s":{"x_min":0,"x_max":302,"ha":302,"o":"m 11 51 q 12 64 21 72 q 30 79 41 79 q 50 79 56 73 q 61 67 69 53 q 81 33 94 22 q 106 11 131 11 q 186 11 195 72 q 196 77 196 85 q 196 114 180 135 q 164 156 130 184 q 97 211 80 232 q 64 252 64 281 q 64 286 66 298 q 75 343 114 370 q 152 396 199 396 q 233 396 256 383 q 280 370 280 350 q 280 335 270 327 q 261 319 249 319 q 238 319 230 325 q 223 331 214 343 q 203 359 192 366 q 182 374 163 374 q 139 374 124 360 q 110 347 110 321 q 110 294 126 272 q 143 251 175 224 q 210 193 226 172 q 243 150 243 120 q 243 88 224 58 q 205 27 172 8 q 139 -11 101 -11 q 62 -11 34 7 q 7 25 11 51 z"},">":{"x_min":0,"x_max":407,"ha":407,"o":"m 376 189 q 376 175 371 172 l 37 25 q 34 24 32 28 q 30 33 30 41 q 30 49 32 56 q 34 64 37 65 l 326 189 l 37 313 q 34 314 32 322 q 30 329 30 337 q 30 345 32 350 q 34 356 37 354 l 371 206 q 376 204 376 189 z"},"l":{"x_min":0,"x_max":237,"ha":237,"o":"m 55 37 q 55 58 61 89 l 160 619 q 162 627 162 641 q 162 666 142 666 q 126 666 94 651 l 92 651 q 88 651 86 656 q 85 661 89 662 l 218 725 l 220 725 q 224 725 228 722 q 231 719 230 717 l 114 89 q 110 67 110 61 q 110 46 116 38 q 121 31 130 31 q 151 31 195 77 q 197 79 199 79 q 202 79 204 76 q 206 72 203 69 q 169 29 142 10 q 116 -9 91 -9 q 72 -9 64 2 q 55 12 55 37 z"},"8":{"x_min":0,"x_max":443,"ha":443,"o":"m 308 352 q 356 310 382 274 q 407 237 407 189 q 407 171 405 161 q 396 111 364 72 q 331 32 284 10 q 236 -13 184 -13 q 115 -13 74 26 q 32 66 32 124 q 32 142 34 151 q 45 217 96 274 q 147 332 209 361 q 177 392 160 420 q 143 449 143 484 q 143 491 145 509 q 159 576 210 606 q 260 636 317 636 q 367 636 396 609 q 426 582 426 536 q 426 488 394 439 q 361 390 308 352 z m 200 515 q 200 471 225 437 q 250 403 297 362 q 325 390 342 425 q 358 460 364 495 q 368 515 368 535 q 368 578 349 599 q 330 620 299 620 q 258 620 234 601 q 211 582 202 537 q 200 521 200 515 z m 347 162 q 347 215 320 252 q 292 289 238 335 l 218 352 q 171 324 140 279 q 110 234 100 177 q 97 159 97 142 q 97 83 128 44 q 158 5 210 5 q 257 5 296 42 q 335 78 344 131 q 347 148 347 162 z"},"\\":{"x_min":0,"x_max":305,"ha":305,"o":"m 114 723 q 113 727 120 730 q 128 733 136 733 q 149 733 150 727 l 222 -159 q 223 -163 215 -166 q 207 -168 198 -168 q 194 -168 190 -166 q 186 -165 186 -163 z"},"e":{"x_min":0,"x_max":343,"ha":343,"o":"m 92 214 q 87 182 87 159 q 87 97 115 60 q 143 22 194 22 q 250 22 294 55 l 296 55 q 299 55 302 52 q 304 49 301 46 q 231 -12 155 -12 q 92 -12 60 28 q 27 69 27 133 q 27 155 32 185 q 41 236 74 286 q 107 335 156 367 q 206 399 260 399 q 293 399 311 387 q 329 375 329 354 q 329 323 296 294 q 264 266 210 245 q 155 224 92 214 z m 95 228 q 165 240 208 264 q 252 288 261 324 q 263 334 263 338 q 263 355 249 364 q 235 372 216 372 q 170 372 138 332 q 107 291 95 228 z"},"b":{"x_min":0,"x_max":434,"ha":434,"o":"m 418 295 q 418 276 413 251 q 397 170 352 110 q 307 50 251 18 q 195 -13 147 -13 q 102 -13 75 6 q 48 26 48 60 q 48 65 50 77 l 152 619 q 154 635 154 639 q 154 666 131 666 q 115 666 83 651 l 81 651 q 77 651 76 656 q 75 661 79 662 l 208 725 l 210 725 q 214 725 217 722 q 220 719 219 717 l 128 218 q 163 298 219 348 q 275 399 335 399 q 374 399 396 370 q 418 342 418 295 z m 354 274 q 354 311 340 332 q 325 353 294 353 q 253 353 215 321 q 177 289 148 230 q 120 172 106 96 q 105 91 105 82 q 105 51 128 32 q 150 13 188 13 q 221 13 254 38 q 286 62 311 109 q 336 156 348 220 q 354 249 354 274 z"},"%":{"x_min":0,"x_max":519,"ha":519,"o":"m 67 404 q 67 444 86 480 q 104 516 135 538 q 166 560 201 560 q 241 560 264 532 q 287 504 287 460 q 287 445 284 430 q 274 376 238 340 q 201 303 155 303 q 115 303 91 331 q 67 359 67 404 z m 60 -6 q 56 -6 48 -1 q 40 4 42 7 l 471 551 l 473 552 q 478 552 486 546 q 493 540 491 537 l 62 -6 z m 230 423 q 235 449 235 478 q 235 548 193 548 q 163 548 147 518 q 131 488 123 436 q 118 404 118 384 q 118 315 164 315 q 193 315 207 342 q 221 370 230 423 z m 262 96 q 262 137 280 173 q 299 209 330 231 q 360 253 395 253 q 435 253 458 224 q 482 196 482 152 q 482 110 464 74 q 446 38 416 16 q 385 -5 351 -5 q 311 -5 286 24 q 262 52 262 96 z m 425 116 q 430 142 430 171 q 430 240 388 240 q 359 240 342 210 q 326 181 318 129 q 313 97 313 77 q 313 8 359 8 q 389 8 403 36 q 417 63 425 116 z"},"m":{"x_min":0,"x_max":676,"ha":676,"o":"m 655 79 q 658 79 660 76 q 662 72 659 69 q 625 29 598 10 q 572 -9 547 -9 q 529 -9 521 2 q 513 12 513 35 q 513 56 519 89 l 548 248 q 553 274 553 302 q 553 331 544 346 q 534 360 514 360 q 483 360 450 320 q 416 279 386 202 q 355 124 335 19 l 333 7 q 332 0 324 -4 q 316 -8 302 -8 q 288 -8 284 -6 q 279 -5 279 -2 l 284 21 l 294 74 l 327 248 q 331 275 331 299 q 331 360 294 360 q 263 360 229 319 q 195 278 165 200 q 135 122 116 17 l 114 7 q 111 -8 82 -8 q 68 -8 64 -6 q 59 -5 59 -2 q 59 -1 67 39 l 73 69 l 115 297 q 118 312 118 324 q 118 356 98 356 q 86 356 68 344 q 49 332 29 310 q 28 309 26 309 q 23 309 20 312 q 18 316 21 318 q 55 357 84 376 q 112 395 138 395 q 155 395 163 384 q 171 374 171 351 q 171 325 166 299 l 146 186 q 181 286 228 342 q 276 399 327 399 q 357 399 372 382 q 386 364 386 326 q 386 302 380 267 l 364 179 q 399 283 447 341 q 495 399 547 399 q 578 399 593 381 q 608 363 608 324 q 608 300 602 267 l 570 89 q 567 73 567 62 q 567 31 585 31 q 607 31 651 77 q 653 79 655 79 z"},"#":{"x_min":0,"x_max":435,"ha":435,"o":"m 413 299 q 413 275 409 275 l 336 275 l 282 116 l 344 116 q 347 116 347 101 q 347 92 346 84 q 344 76 343 76 l 269 76 l 216 -82 q 216 -84 211 -84 q 204 -84 195 -80 q 186 -77 187 -74 l 237 76 l 118 76 l 65 -82 q 65 -84 60 -84 q 53 -84 44 -80 q 35 -77 36 -74 l 86 76 l 27 76 q 26 76 24 82 q 23 89 23 96 q 23 103 24 110 q 26 116 27 116 l 99 116 l 153 275 l 94 275 q 93 275 92 282 q 90 288 90 295 q 90 302 92 308 q 93 314 94 314 l 166 314 l 222 483 q 222 485 226 485 q 232 485 242 480 q 252 476 251 473 l 198 314 l 317 314 l 373 483 q 373 485 377 485 q 383 485 393 480 q 403 476 402 473 l 349 314 l 411 314 q 413 314 413 299 z m 250 116 l 304 275 l 185 275 l 131 116 z"},",":{"x_min":0,"x_max":224,"ha":224,"o":"m 127 8 q 127 -79 16 -159 q 15 -160 13 -160 q 10 -160 8 -156 q 6 -152 9 -150 q 46 -122 66 -94 q 87 -65 92 -32 q 94 -20 94 -15 q 94 -6 91 2 q 82 -8 64 -8 q 46 -8 36 4 q 25 15 25 31 q 25 50 38 60 q 50 71 72 71 q 97 71 112 54 q 127 38 127 8 z"},"n":{"x_min":0,"x_max":465,"ha":465,"o":"m 444 79 q 447 79 450 76 q 452 72 449 69 q 415 29 388 10 q 362 -9 337 -9 q 319 -9 310 2 q 302 12 302 36 q 302 56 308 89 l 337 248 q 343 280 343 302 q 343 360 300 360 q 267 360 232 318 q 196 276 165 196 q 134 115 115 7 q 113 0 104 -4 q 96 -8 82 -8 q 68 -8 64 -6 q 59 -5 59 -2 l 63 21 q 69 45 74 74 l 115 297 q 118 312 118 324 q 118 356 98 356 q 86 356 68 344 q 49 332 29 310 q 28 309 26 309 q 23 309 20 312 q 18 316 21 318 q 55 357 84 376 q 112 395 138 395 q 155 395 163 384 q 171 374 171 351 q 171 325 166 299 l 145 178 q 181 282 230 340 q 279 399 333 399 q 366 399 382 381 q 398 363 398 324 q 398 300 392 267 l 359 89 q 356 74 356 62 q 356 31 376 31 q 397 31 441 77 q 443 79 444 79 z"},"h":{"x_min":0,"x_max":445,"ha":445,"o":"m 425 79 q 428 79 430 76 q 432 72 429 69 q 395 29 368 10 q 342 -9 317 -9 q 299 -9 290 2 q 282 12 282 36 q 282 56 288 89 l 317 248 q 323 280 323 302 q 323 360 280 360 q 248 360 213 319 q 178 278 147 200 q 116 123 97 17 l 95 7 q 93 0 84 -4 q 76 -8 62 -8 q 39 -8 39 -2 l 43 21 q 49 45 54 74 l 156 619 q 158 635 158 640 q 158 666 136 666 q 120 666 88 651 l 86 651 q 82 651 81 656 q 80 660 83 662 l 212 725 l 214 725 q 218 725 222 722 q 225 719 224 717 l 127 184 q 163 285 212 342 q 260 399 313 399 q 346 399 362 380 q 378 362 378 323 q 378 300 372 267 l 339 89 q 336 74 336 62 q 336 31 355 31 q 377 31 421 77 q 423 79 425 79 z"},"z":{"x_min":0,"x_max":344,"ha":344,"o":"m 348 397 q 351 397 354 393 q 356 389 354 387 l 73 67 q 84 71 102 71 q 127 71 198 58 q 256 48 271 48 q 287 48 296 58 q 306 68 316 94 q 316 95 319 95 q 322 95 325 94 q 328 92 327 90 q 313 47 304 28 q 294 8 284 2 q 273 -5 255 -5 q 230 -5 196 1 q 162 7 155 8 q 93 21 56 22 q 40 22 28 16 q 16 10 1 -7 l 0 -7 q -2 -7 -5 -3 q -8 1 -7 2 l 275 323 q 266 318 246 318 q 231 318 208 322 q 185 326 163 331 q 117 342 100 342 q 84 342 74 331 q 64 320 53 293 q 52 290 49 290 q 46 290 44 292 q 41 295 42 299 q 58 346 68 365 q 78 384 90 390 q 102 395 125 394 q 146 393 202 381 q 261 369 291 367 q 307 367 319 373 q 331 379 346 396 z"},"B":{"x_min":0,"x_max":521,"ha":521,"o":"m 477 213 q 477 197 474 180 q 465 130 432 88 q 399 46 351 21 q 303 -4 249 -4 q 219 -4 184 -1 q 172 0 155 1 q 138 2 117 2 l 54 1 q 38 0 10 0 q 7 0 8 6 q 8 12 10 12 q 44 12 62 18 q 79 23 88 38 q 97 52 102 82 l 184 545 q 187 563 187 575 q 187 598 173 606 q 159 613 119 613 q 115 613 116 619 q 116 625 119 625 l 165 624 q 203 622 224 622 q 242 622 256 623 q 271 624 282 625 q 311 628 332 628 q 405 628 441 600 q 477 571 477 523 q 477 509 474 492 q 463 443 427 408 q 391 372 334 352 q 401 346 439 308 q 477 271 477 213 z m 208 352 l 248 351 q 319 351 362 390 q 404 429 415 492 q 418 509 418 525 q 418 566 392 590 q 367 614 312 614 q 288 614 276 609 q 263 604 254 588 q 246 573 241 540 z m 410 203 q 410 263 375 296 q 340 329 273 330 q 243 331 203 328 l 160 79 q 157 66 157 54 q 157 31 174 22 q 191 13 236 13 q 309 13 352 54 q 395 95 407 164 q 410 185 410 203 z"},"K":{"x_min":0,"x_max":595,"ha":595,"o":"m 619 613 q 583 613 540 596 q 498 578 458 539 l 279 381 l 379 202 q 430 110 458 71 q 485 32 503 22 q 521 12 550 12 q 553 12 553 6 q 553 0 550 0 l 465 0 q 429 0 420 5 q 411 10 381 68 q 351 126 339 148 l 232 339 l 194 306 l 154 81 q 148 45 148 39 q 148 23 160 18 q 172 12 206 12 q 208 12 208 6 q 208 0 206 0 q 180 0 167 1 l 111 2 l 52 1 q 37 0 11 0 q 8 0 8 6 q 8 12 11 12 q 43 12 60 17 q 76 22 84 36 q 92 51 97 81 l 179 544 q 182 564 182 575 q 182 598 168 606 q 155 613 118 613 q 116 613 116 619 q 116 625 118 625 l 160 624 q 196 622 218 622 q 242 622 280 624 l 321 625 q 323 625 323 619 q 323 613 321 613 q 289 613 274 607 q 258 601 250 586 q 242 572 236 542 l 198 329 l 437 545 q 474 579 474 596 q 474 613 428 613 q 426 613 426 619 q 426 625 428 625 l 466 624 q 502 622 531 622 q 558 622 588 624 l 619 625 q 622 625 622 619 q 622 613 619 613 z"},"R":{"x_min":0,"x_max":614,"ha":614,"o":"m 588 0 l 480 0 q 456 0 408 86 q 361 173 301 327 q 273 318 240 318 l 208 320 l 166 81 q 162 62 162 47 q 162 26 176 19 q 190 12 228 12 q 232 12 232 6 q 232 0 229 0 q 200 0 184 1 l 122 2 l 61 1 q 44 0 15 0 q 11 0 11 6 q 11 12 15 12 q 49 12 66 18 q 84 23 93 37 q 102 51 108 81 l 190 544 q 194 570 194 576 q 194 598 180 606 q 165 613 126 613 q 122 613 122 619 q 122 625 126 625 l 170 624 q 208 622 231 622 q 247 622 262 623 q 276 624 287 625 q 316 628 338 628 q 403 628 438 602 q 472 577 472 531 q 472 476 438 426 q 403 376 349 347 q 405 218 444 146 q 483 75 516 44 q 550 12 588 12 q 592 12 592 6 q 592 0 588 0 z m 259 341 q 324 341 358 371 q 391 401 403 469 q 407 492 407 515 q 407 566 383 590 q 359 613 317 613 q 292 613 280 610 q 268 606 260 591 q 253 576 248 542 l 213 344 q 234 341 259 341 z"},"T":{"x_min":0,"x_max":553,"ha":553,"o":"m 142 12 q 176 12 192 17 q 209 22 218 36 q 226 51 231 81 l 313 544 q 316 562 316 574 q 316 594 304 601 q 293 608 262 608 l 238 608 q 179 608 144 574 q 110 541 88 464 q 88 462 84 462 q 81 462 78 464 q 75 465 76 466 q 84 491 99 552 q 114 614 120 647 q 121 650 127 650 q 133 649 132 646 q 129 625 171 625 q 245 622 354 622 q 405 622 467 624 l 530 625 q 560 625 575 630 q 590 635 596 650 q 598 653 603 652 q 608 652 607 648 q 599 621 585 556 q 571 492 567 466 q 566 463 560 464 q 555 464 556 468 q 561 501 561 522 q 561 568 538 588 q 516 608 465 608 l 441 608 q 415 608 402 602 q 388 597 382 584 q 375 570 370 542 l 289 81 q 286 63 286 50 q 286 27 300 20 q 315 12 356 12 q 358 12 358 6 q 358 0 356 0 q 329 0 313 1 l 248 2 l 186 1 q 170 0 142 0 q 139 0 139 6 q 139 12 142 12 z"},"P":{"x_min":0,"x_max":503,"ha":503,"o":"m 13 12 q 45 12 61 17 q 77 22 85 36 q 93 51 99 81 l 180 544 q 184 561 184 577 q 184 598 170 606 q 157 613 120 613 q 118 613 118 619 q 118 625 120 625 l 160 624 q 196 622 219 622 q 230 622 266 624 q 312 628 342 628 q 416 628 464 593 q 511 558 511 491 q 511 472 507 453 q 496 390 456 347 q 415 304 362 283 q 310 262 261 262 q 236 262 220 267 q 218 267 218 271 q 218 274 220 278 q 222 282 224 281 q 237 277 254 277 q 294 277 332 294 q 371 311 400 346 q 428 382 438 433 q 442 453 442 476 q 442 540 407 576 q 372 613 321 613 q 288 613 274 609 q 259 605 251 590 q 243 576 236 542 l 155 81 q 152 62 152 49 q 152 27 166 20 q 179 12 216 12 q 219 12 219 6 q 219 0 216 0 q 190 0 175 1 l 112 2 l 53 1 q 38 0 13 0 q 10 0 10 6 q 10 12 13 12 z"},"|":{"x_min":0,"x_max":152,"ha":152,"o":"m 19 -160 q 11 -160 4 -158 q -2 -155 -1 -151 l 153 731 q 154 736 168 736 q 176 736 183 734 q 190 731 189 727 l 34 -154 q 33 -160 19 -160 z"},"t":{"x_min":0,"x_max":295,"ha":295,"o":"m 297 376 q 297 368 286 355 q 275 342 265 342 q 260 342 226 346 q 191 351 158 352 l 114 104 q 111 88 111 75 q 111 50 123 38 q 135 26 160 26 q 186 26 209 38 q 232 49 256 70 l 257 70 q 260 70 264 67 q 267 64 264 62 q 219 23 186 6 q 152 -12 121 -12 q 92 -12 73 3 q 54 18 54 51 q 54 57 56 73 l 99 306 q 103 325 103 338 q 103 352 95 356 q 87 361 65 361 q 62 361 62 366 q 62 368 64 370 q 65 373 66 373 q 100 373 125 395 q 150 417 159 450 q 161 453 168 453 q 178 453 176 450 l 163 376 q 212 378 256 381 l 290 383 q 297 383 297 376 z"},"M":{"x_min":0,"x_max":732,"ha":732,"o":"m 765 613 q 723 613 703 600 q 683 586 677 546 l 608 81 q 605 63 605 51 q 605 27 618 20 q 632 12 669 12 q 672 12 672 6 q 672 0 669 0 q 644 0 629 1 l 567 2 l 507 1 q 492 0 466 0 q 463 0 463 6 q 463 12 466 12 q 499 12 515 17 q 531 22 538 36 q 546 51 550 81 l 622 557 l 330 7 q 328 3 323 3 q 318 3 316 8 l 203 542 l 202 546 l 123 109 q 119 77 119 69 q 119 39 132 26 q 144 12 172 12 q 175 12 175 6 q 175 0 172 0 q 151 0 140 1 l 95 2 l 53 1 q 41 0 18 0 q 15 0 15 6 q 15 12 18 12 q 53 12 73 34 q 93 57 103 109 l 190 579 q 170 613 126 613 q 124 613 124 619 q 124 625 126 625 l 154 624 q 164 623 181 623 q 199 623 210 624 q 220 625 225 625 q 236 625 242 615 q 249 605 256 573 l 358 96 l 624 600 q 639 625 656 625 q 663 625 674 624 q 686 623 699 623 l 738 624 q 747 625 765 625 q 767 625 767 619 q 767 613 765 613 z"},"g":{"x_min":0,"x_max":409,"ha":409,"o":"m 386 406 l 301 -62 q 282 -169 228 -225 q 173 -281 86 -281 q 40 -281 11 -262 q -18 -242 -18 -213 q -18 -206 -17 -203 q -13 -175 16 -175 q 29 -175 35 -182 q 41 -189 49 -206 q 59 -231 74 -245 q 90 -259 125 -259 q 166 -259 197 -222 q 228 -184 246 -86 l 295 193 q 249 100 192 44 q 134 -13 81 -13 q 19 -13 19 61 q 19 69 21 91 q 31 162 74 234 q 117 306 175 352 q 233 399 284 399 q 303 399 321 392 q 339 385 350 371 q 368 386 374 407 q 375 410 381 409 q 387 408 386 406 z m 309 277 q 312 290 311 300 q 311 330 296 347 q 280 364 249 364 q 214 363 178 332 q 141 302 114 250 q 87 199 78 136 q 75 114 75 96 q 75 36 117 36 q 153 36 194 73 q 234 110 266 166 q 298 223 309 277 z"},"j":{"x_min":0,"x_max":239,"ha":239,"o":"m 140 556 q 140 575 152 586 q 163 597 183 597 q 203 597 214 586 q 225 575 225 556 q 225 536 214 524 q 203 513 183 513 q 163 513 152 524 q 140 536 140 556 z m -85 -232 q -82 -217 -73 -209 q -64 -201 -51 -201 q -38 -201 -33 -208 q -28 -216 -23 -233 q -19 -247 -14 -254 q -10 -260 -1 -260 q 13 -260 24 -241 q 34 -222 44 -180 q 54 -139 67 -61 l 129 297 q 132 312 132 324 q 132 356 112 356 q 101 356 82 344 q 64 332 43 310 q 42 309 40 309 q 37 309 34 312 q 32 316 35 318 q 70 358 98 376 q 126 395 152 395 q 169 395 177 384 q 185 374 185 351 q 185 325 180 299 l 122 -38 q 106 -132 88 -182 q 70 -233 44 -254 q 18 -275 -23 -275 q -54 -275 -70 -262 q -87 -250 -85 -232 z"},"i":{"x_min":0,"x_max":247,"ha":247,"o":"m 129 556 q 129 575 140 586 q 152 597 172 597 q 192 597 203 586 q 214 575 214 556 q 214 536 203 524 q 192 513 172 513 q 152 513 140 524 q 129 536 129 556 z m 73 36 q 73 51 80 89 l 121 297 q 124 312 124 324 q 124 356 104 356 q 92 356 74 344 q 55 332 35 310 q 34 309 32 309 q 29 309 26 312 q 24 316 27 318 q 62 358 90 376 q 118 395 143 395 q 161 395 170 384 q 178 374 178 350 q 178 331 172 299 l 131 89 q 128 73 128 62 q 128 31 147 31 q 171 31 215 75 q 217 77 219 77 q 222 77 224 74 q 226 70 223 67 q 189 28 162 10 q 135 -9 109 -9 q 91 -9 82 2 q 73 12 73 36 z"},"y":{"x_min":0,"x_max":436,"ha":436,"o":"m 405 388 q 404 382 398 358 q 393 333 389 312 l 319 -70 q 301 -170 250 -226 q 199 -281 114 -281 q 70 -281 43 -262 q 16 -243 16 -215 q 16 -209 17 -205 q 19 -188 28 -180 q 37 -173 49 -173 q 60 -173 66 -180 q 71 -188 78 -204 q 89 -230 104 -245 q 119 -260 154 -260 q 191 -260 220 -224 q 249 -188 266 -94 l 320 214 q 284 108 234 48 q 184 -13 130 -13 q 97 -13 81 4 q 65 22 65 60 q 65 87 72 119 l 108 297 q 111 312 111 323 q 111 355 91 355 q 71 355 25 309 q 23 307 22 307 q 19 307 17 310 q 15 314 17 317 q 52 357 78 376 q 105 395 129 395 q 147 395 156 384 q 165 374 165 350 q 165 328 158 297 l 126 138 q 119 101 119 83 q 119 26 163 26 q 196 26 232 68 q 267 111 298 191 q 329 271 349 380 q 350 386 358 390 q 366 394 379 394 q 395 394 400 392 q 405 391 405 388 z"},"@":{"x_min":0,"x_max":719,"ha":719,"o":"m 411 110 q 411 123 414 138 l 424 189 q 389 126 346 88 q 304 49 266 49 q 243 49 228 64 q 214 79 214 111 q 214 122 215 129 q 223 182 256 235 q 289 288 334 322 q 378 355 417 355 q 448 355 465 334 q 479 346 482 362 q 484 364 490 364 q 502 364 500 361 l 459 137 q 456 121 456 108 q 456 90 464 80 q 472 71 493 71 q 520 71 548 91 q 575 111 593 148 q 611 186 611 236 q 611 300 578 354 q 546 407 490 438 q 434 470 365 470 q 287 470 231 434 q 175 398 146 336 q 117 274 117 199 q 117 120 152 60 q 186 0 249 -33 q 312 -66 393 -66 q 441 -66 478 -56 q 514 -46 559 -20 l 560 -20 q 562 -20 564 -24 q 567 -27 565 -28 q 477 -97 361 -97 q 280 -97 214 -64 q 149 -32 111 30 q 73 91 73 175 q 73 267 118 340 q 163 412 237 452 q 311 493 396 493 q 471 493 528 462 q 586 431 617 379 q 648 327 648 265 q 648 209 623 160 q 598 111 556 81 q 514 51 466 51 q 438 51 424 66 q 411 82 411 110 z m 438 270 q 440 282 440 287 q 440 307 430 320 q 419 332 398 332 q 373 332 346 308 q 318 285 296 246 q 275 206 268 161 q 265 142 265 128 q 265 89 293 89 q 319 89 350 116 q 380 143 404 186 q 429 228 438 270 z"},".":{"x_min":0,"x_max":197,"ha":197,"o":"m 25 32 q 25 51 36 62 q 48 73 68 73 q 88 73 99 62 q 110 51 110 32 q 110 12 99 1 q 88 -10 68 -10 q 48 -10 36 1 q 25 12 25 32 z"},"p":{"x_min":0,"x_max":407,"ha":407,"o":"m 383 289 q 383 273 380 253 q 371 186 335 128 q 299 69 248 34 q 197 -1 145 -1 q 109 -1 88 2 l 56 -178 q 53 -195 53 -206 q 53 -224 62 -232 q 70 -240 89 -240 q 95 -240 113 -238 l 114 -238 q 117 -238 118 -243 q 119 -248 115 -249 l -57 -275 q -61 -276 -62 -270 q -63 -264 -59 -263 q -37 -259 -26 -252 q -15 -246 -10 -232 q -4 -217 2 -185 l 87 290 l 42 256 l 40 255 q 37 255 34 260 q 32 264 34 265 q 66 294 91 311 l 104 386 q 104 388 118 400 q 132 413 143 427 q 154 441 158 459 q 158 462 163 462 q 165 462 168 460 q 170 459 169 457 l 150 351 q 223 393 285 393 q 333 393 358 366 q 383 340 383 289 z m 326 261 q 326 357 243 357 q 198 357 146 328 l 95 44 q 131 27 173 27 q 236 27 274 80 q 312 133 323 220 q 326 241 326 261 z"},"X":{"x_min":0,"x_max":579,"ha":579,"o":"m 617 613 q 559 613 482 519 l 338 338 l 437 83 q 451 44 472 28 q 492 12 528 12 q 532 12 532 6 q 532 0 528 0 q 506 0 493 1 l 444 2 l 376 1 q 359 0 332 0 q 328 0 328 6 q 328 12 332 12 q 358 12 370 18 q 383 23 383 36 q 383 42 380 51 l 289 286 l 139 94 q 111 59 111 39 q 111 12 158 12 q 162 12 162 6 q 162 0 158 0 q 132 0 118 1 l 56 2 l 20 1 q 10 0 -13 0 q -17 0 -17 6 q -17 12 -13 12 q 16 12 50 34 q 85 56 119 98 l 282 304 l 190 542 q 175 581 156 597 q 138 613 109 613 q 105 613 105 619 q 105 625 109 625 l 140 624 q 162 622 173 622 q 204 622 246 624 l 291 625 q 295 625 295 619 q 295 613 291 613 q 243 613 243 589 q 243 585 247 573 l 331 356 l 462 524 q 493 564 493 586 q 493 613 448 613 q 444 613 444 619 q 444 625 448 625 l 488 624 q 522 622 550 622 q 564 622 586 624 l 617 625 q 622 625 622 619 q 622 613 617 613 z"},"*":{"x_min":0,"x_max":448,"ha":448,"o":"m 265 658 q 265 667 284 676 q 304 685 324 688 q 345 691 343 686 l 276 529 q 275 526 270 526 q 265 526 265 529 z m 121 550 q 109 554 109 592 q 109 609 112 622 q 115 636 118 633 l 247 520 q 248 519 248 517 q 248 515 246 512 q 245 510 243 511 z m 291 503 q 289 503 288 508 q 286 512 288 513 l 411 553 q 420 556 434 540 q 448 524 458 506 q 467 488 461 488 z m 166 376 q 154 376 136 382 q 119 388 108 395 q 96 402 99 404 l 246 491 l 248 492 q 250 492 252 489 q 255 486 254 485 l 179 381 q 176 376 166 376 z m 273 481 l 273 482 q 273 484 276 487 q 280 490 281 488 l 358 384 q 363 376 352 358 q 341 339 326 324 q 312 309 311 315 z"},"Y":{"x_min":0,"x_max":529,"ha":529,"o":"m 600 613 q 536 613 469 519 l 317 310 l 277 81 q 273 62 273 47 q 273 26 287 19 q 301 12 339 12 q 343 12 343 6 q 343 0 339 0 q 312 0 297 1 l 236 2 l 173 1 q 158 0 131 0 q 127 0 127 6 q 127 12 131 12 q 164 12 181 18 q 198 23 206 37 q 214 51 219 81 l 257 301 l 155 542 q 138 581 120 597 q 103 613 75 613 q 71 613 71 619 q 71 625 75 625 l 109 624 q 133 622 144 622 q 169 622 213 624 l 259 625 q 261 625 261 620 q 261 613 257 613 q 230 613 218 608 q 207 603 207 591 q 207 585 212 573 l 313 331 l 449 524 q 476 562 476 584 q 476 613 434 613 q 430 613 430 619 q 430 625 434 625 l 474 624 q 508 622 533 622 q 548 622 568 624 l 600 625 q 604 625 604 619 q 604 613 600 613 z"},"c":{"x_min":0,"x_max":345,"ha":345,"o":"m 29 142 q 29 174 35 202 q 47 262 81 307 q 115 352 160 376 q 205 399 249 399 q 286 399 312 382 q 338 365 335 340 q 334 326 326 317 q 317 308 302 308 q 276 308 266 340 q 262 354 250 366 q 237 377 214 377 q 167 377 138 337 q 108 297 96 233 q 89 193 89 167 q 89 103 117 62 q 145 22 199 22 q 250 22 305 67 l 307 68 q 310 68 312 64 q 315 60 313 58 q 233 -13 157 -13 q 92 -13 60 32 q 29 76 29 142 z"},"!":{"x_min":0,"x_max":219,"ha":219,"o":"m 102 192 l 108 242 q 123 365 132 454 q 141 544 144 621 q 144 625 158 629 q 171 633 186 633 q 202 633 215 629 q 228 625 227 621 q 197 534 172 434 q 146 333 113 191 q 112 186 106 186 q 101 187 102 192 z m 37 32 q 37 51 48 62 q 60 73 80 73 q 100 73 111 62 q 122 51 122 32 q 122 12 111 1 q 100 -10 80 -10 q 60 -10 48 1 q 37 12 37 32 z"},"/":{"x_min":0,"x_max":305,"ha":305,"o":"m -41 -156 l 343 731 q 345 734 349 734 q 357 734 367 728 q 377 722 374 718 l -8 -167 q -9 -170 -18 -168 q -27 -167 -34 -162 q -42 -158 -41 -156 z"},"[":{"x_min":0,"x_max":248,"ha":248,"o":"m 27 -106 l 172 715 q 173 722 174 724 q 176 725 181 725 l 308 725 q 312 725 312 719 q 312 713 308 713 q 272 713 254 707 q 235 701 226 686 q 217 672 212 642 l 93 -34 q 89 -58 89 -65 q 89 -88 105 -96 q 121 -105 162 -105 q 167 -105 167 -111 q 167 -117 162 -117 l 32 -117 q 27 -117 26 -115 q 25 -113 27 -106 z"},"6":{"x_min":0,"x_max":449,"ha":449,"o":"m 53 152 q 53 190 60 226 q 77 324 129 416 q 181 507 258 568 q 336 628 425 636 q 428 636 429 631 q 430 626 426 625 q 348 607 285 549 q 222 491 181 410 q 140 329 125 243 q 118 205 118 162 q 118 93 142 50 q 166 6 219 6 q 265 6 293 38 q 321 69 333 130 q 339 166 339 198 q 339 252 320 283 q 300 314 259 314 q 217 314 179 269 l 177 268 q 174 268 171 272 q 168 275 169 276 q 189 307 222 324 q 255 340 290 340 q 350 340 378 304 q 406 267 406 209 q 406 187 401 159 q 386 80 328 34 q 269 -13 194 -13 q 123 -13 88 31 q 53 75 53 152 z"},"r":{"x_min":0,"x_max":340,"ha":340,"o":"m 344 348 q 344 333 334 323 q 325 313 311 313 q 300 313 294 318 q 287 323 280 333 q 276 338 271 342 q 266 347 260 347 q 238 347 208 289 q 177 231 150 150 q 123 69 111 7 q 110 0 102 -4 q 93 -8 79 -8 q 66 -8 62 -6 q 57 -5 57 -2 l 62 21 l 72 74 l 105 259 q 111 292 111 311 q 111 356 87 356 q 65 356 26 319 l 24 318 q 21 318 19 322 q 17 325 18 327 q 49 361 75 378 q 101 395 126 395 q 146 395 156 382 q 165 369 165 337 q 165 312 157 261 l 136 147 q 170 252 210 324 q 251 395 289 395 q 308 395 326 381 q 344 367 344 348 z"},"2":{"x_min":0,"x_max":404,"ha":404,"o":"m -4 16 q 32 56 51 75 q 136 167 186 226 q 236 286 274 350 q 313 414 323 472 q 326 490 326 506 q 326 548 304 571 q 282 594 240 594 q 195 594 158 565 q 121 536 97 484 q 95 482 93 482 q 90 482 88 484 q 86 486 87 489 q 112 559 162 598 q 211 636 273 636 q 328 636 358 604 q 389 571 389 518 q 389 502 386 485 q 376 428 336 366 q 297 305 250 253 q 203 201 136 134 q 74 70 63 57 q 59 53 60 52 q 61 52 65 52 q 179 52 229 56 q 279 60 301 74 q 323 89 330 122 q 330 125 335 125 q 338 125 340 124 q 343 122 342 120 l 322 9 q 320 0 312 0 l 2 0 q -2 0 -4 6 q -7 12 -4 16 z"},"{":{"x_min":0,"x_max":261,"ha":261,"o":"m 69 -34 q 69 0 82 80 q 96 159 96 202 q 96 244 84 268 q 72 293 43 298 q 41 298 41 304 q 41 311 43 311 q 92 317 118 373 q 143 429 161 529 q 176 615 194 656 q 211 696 239 710 q 267 725 320 725 q 323 725 323 719 q 323 713 320 713 q 286 713 263 686 q 240 658 231 607 q 207 487 192 436 q 178 385 153 356 q 128 328 76 305 q 116 284 132 260 q 148 236 148 192 q 148 163 141 112 q 134 62 124 1 q 120 -25 120 -36 q 120 -69 134 -87 q 148 -105 174 -105 q 177 -105 177 -111 q 177 -117 174 -117 q 114 -117 92 -100 q 69 -84 69 -34 z"},"9":{"x_min":0,"x_max":449,"ha":449,"o":"m 66 -1 q 187 25 264 130 q 340 236 366 380 q 373 418 373 460 q 373 530 348 574 q 324 618 271 618 q 183 618 158 494 q 152 458 152 426 q 152 372 172 341 q 191 310 232 310 q 274 310 312 354 q 313 355 315 355 q 318 355 320 352 q 322 349 321 347 q 301 316 269 300 q 237 283 201 283 q 141 283 114 320 q 86 357 86 416 q 86 443 90 464 q 105 543 164 590 q 223 636 299 636 q 369 636 404 592 q 439 548 439 472 q 439 434 432 398 q 413 293 362 202 q 312 111 236 53 q 160 -5 67 -13 q 63 -13 62 -8 q 62 -2 66 -1 z"}," ":{"x_min":0,"x_max":234,"ha":234,"o":""},"I":{"x_min":0,"x_max":308,"ha":308,"o":"m 20 12 q 52 12 68 17 q 83 22 91 36 q 99 51 104 81 l 186 544 q 190 570 190 575 q 190 598 176 606 q 162 613 125 613 q 122 613 122 619 q 122 625 125 625 l 168 624 q 204 622 226 622 q 252 622 290 624 l 330 625 q 332 625 332 619 q 332 613 330 613 q 298 613 282 607 q 267 601 259 586 q 251 572 245 542 l 163 81 q 160 62 160 49 q 160 27 174 20 q 187 12 225 12 q 227 12 227 6 q 227 0 225 0 q 199 0 184 1 l 122 2 l 63 1 q 48 0 20 0 q 17 0 17 6 q 17 12 20 12 z"},"H":{"x_min":0,"x_max":671,"ha":671,"o":"m 700 613 q 668 613 652 608 q 636 602 628 588 q 620 574 615 544 l 533 81 q 530 63 530 50 q 530 27 544 20 q 557 12 594 12 q 597 12 597 6 q 597 0 594 0 q 569 0 554 1 l 494 2 l 434 1 q 418 0 391 0 q 389 0 389 6 q 389 12 391 12 q 424 12 440 17 q 455 22 463 36 q 471 51 476 81 l 517 315 l 196 315 l 154 81 q 150 55 150 48 q 150 27 164 20 q 177 12 214 12 q 217 12 217 6 q 217 0 214 0 q 188 0 172 1 l 111 2 l 52 1 q 37 0 11 0 q 8 0 8 6 q 8 12 11 12 q 43 12 60 17 q 76 22 84 36 q 92 51 97 81 l 179 544 q 182 564 182 575 q 182 598 168 606 q 155 613 118 613 q 116 613 116 619 q 116 625 118 625 l 160 624 q 196 622 218 622 q 242 622 280 624 l 321 625 q 323 625 323 619 q 323 613 321 613 q 289 613 274 607 q 258 601 250 586 q 242 572 236 542 l 199 336 l 521 336 l 557 542 q 561 568 561 575 q 561 597 548 605 q 534 613 498 613 q 495 613 495 619 q 495 625 498 625 l 539 624 q 575 622 598 622 q 620 622 658 624 l 700 625 q 702 625 702 619 q 702 613 700 613 z"},"4":{"x_min":0,"x_max":428,"ha":428,"o":"m 378 177 l 301 180 l 283 81 q 280 62 280 49 q 280 27 292 20 q 305 12 338 12 q 343 12 343 6 q 343 0 338 0 q 315 0 301 1 l 245 2 l 176 1 q 159 0 129 0 q 125 0 125 6 q 125 12 129 12 q 171 12 190 16 q 208 21 216 34 q 224 48 229 81 l 247 182 q 125 184 20 184 q 15 184 14 188 q 12 191 16 195 l 366 630 q 368 632 372 632 q 375 632 378 630 q 380 629 379 626 l 308 221 l 385 224 q 389 224 385 200 q 381 177 378 177 z m 253 220 l 308 528 l 68 225 q 61 218 71 218 q 147 218 253 220 z"},"~":{"x_min":0,"x_max":443,"ha":443,"o":"m 52 152 q 50 152 48 154 q 45 157 46 159 q 72 192 99 212 q 126 232 158 232 q 173 232 192 227 q 211 222 230 216 q 281 197 314 197 q 343 197 359 207 q 375 217 391 235 l 392 235 q 395 235 398 232 q 400 230 398 228 q 363 185 340 170 q 318 155 291 155 q 273 155 252 160 q 231 166 212 172 q 186 181 166 186 q 147 190 128 190 q 109 190 97 186 q 85 181 74 172 q 64 163 53 152 z"},"D":{"x_min":0,"x_max":612,"ha":612,"o":"m 180 -1 q 169 0 152 1 q 135 2 113 2 l 52 1 q 37 0 11 0 q 8 0 8 6 q 8 12 11 12 q 43 12 60 17 q 76 22 84 36 q 92 51 97 81 l 179 544 q 183 570 183 576 q 183 598 169 606 q 155 613 118 613 q 116 613 116 619 q 116 625 118 625 l 161 624 q 199 622 222 622 q 252 622 283 625 q 321 627 335 627 q 415 627 474 596 q 534 564 566 508 q 597 453 597 381 q 597 356 592 323 q 575 226 521 152 q 467 77 392 36 q 316 -4 236 -4 q 212 -4 180 -1 z m 519 301 q 526 340 526 382 q 526 484 478 548 q 429 613 338 613 q 287 613 266 599 q 244 585 236 542 l 157 92 q 153 70 153 61 q 153 34 170 22 q 188 10 230 10 q 300 10 360 44 q 419 78 461 144 q 503 209 519 301 z"},"^":{"x_min":0,"x_max":353,"ha":353,"o":"m 93 374 q 90 374 87 376 q 84 378 85 380 l 243 629 q 246 634 254 634 q 263 634 263 629 l 333 380 q 333 378 328 376 q 324 374 323 377 l 238 543 l 96 375 q 95 374 93 374 z"},"0":{"x_min":0,"x_max":464,"ha":464,"o":"m 57 205 q 57 257 67 313 q 83 406 120 480 q 158 554 208 596 q 258 637 312 637 q 377 637 414 578 q 450 519 450 419 q 450 366 440 310 q 423 216 386 142 q 350 69 300 28 q 250 -13 196 -13 q 131 -13 94 46 q 57 105 57 205 z m 371 298 q 386 388 386 452 q 386 536 364 580 q 341 624 302 624 q 247 624 202 540 q 157 456 133 320 q 120 245 120 179 q 120 96 142 48 q 165 1 209 1 q 265 1 306 80 q 347 158 371 298 z"},"F":{"x_min":0,"x_max":483,"ha":483,"o":"m 509 616 l 491 492 q 490 488 484 489 q 478 490 479 493 q 480 501 480 515 q 480 559 460 584 q 439 610 403 610 l 321 610 q 289 610 274 605 q 258 600 250 586 q 243 573 237 543 l 199 324 l 328 324 q 367 324 386 340 q 404 355 411 394 q 412 398 418 398 q 424 397 423 393 q 420 370 414 342 l 409 313 q 402 272 401 262 l 394 220 q 393 216 387 216 q 381 217 382 221 q 385 238 385 250 q 385 278 370 290 q 355 303 321 303 l 195 303 l 157 85 q 153 61 153 54 q 153 29 174 20 q 194 12 252 12 q 254 12 254 6 q 254 0 252 0 q 221 0 202 1 l 113 2 l 55 1 q 40 0 13 0 q 11 0 11 6 q 11 12 13 12 q 45 12 61 17 q 77 22 85 36 q 93 51 99 81 l 180 544 q 184 561 184 576 q 184 598 170 606 q 156 613 120 613 q 118 613 118 619 q 118 625 120 625 l 504 625 q 512 625 509 616 z"},"`":{"x_min":0,"x_max":166,"ha":166,"o":"m 130 727 q 129 731 139 731 q 152 731 169 726 q 186 721 186 716 l 181 476 q 181 474 176 473 q 172 472 172 475 z"},"k":{"x_min":0,"x_max":417,"ha":417,"o":"m 407 76 q 411 76 413 72 q 415 69 413 67 q 346 -9 307 -9 q 284 -9 268 5 q 251 19 228 58 l 170 159 q 161 174 154 180 q 147 186 136 186 l 127 185 l 95 7 q 93 0 84 -4 q 76 -8 62 -8 q 39 -8 39 -2 l 43 21 q 49 45 54 74 l 156 619 q 158 635 158 640 q 158 666 136 666 q 120 666 88 651 l 86 651 q 82 651 81 656 q 80 660 83 662 l 212 725 l 214 725 q 218 725 222 722 q 225 719 224 717 l 149 308 q 187 350 232 374 q 278 399 325 399 q 354 399 367 384 q 380 370 380 351 q 380 342 379 339 q 372 303 326 268 q 281 234 206 208 l 273 92 q 293 58 308 46 q 322 34 338 34 q 364 34 404 75 q 405 76 407 76 z m 131 207 l 130 199 q 220 220 260 247 q 301 274 309 321 q 311 331 311 335 q 311 351 303 360 q 295 369 281 369 q 230 369 188 325 q 147 281 131 207 z"},"u":{"x_min":0,"x_max":465,"ha":465,"o":"m 439 77 q 442 77 444 74 q 446 70 444 68 q 409 28 381 10 q 353 -9 327 -9 q 310 -9 302 2 q 294 12 294 35 q 294 61 299 87 l 320 208 q 284 104 235 46 q 186 -13 132 -13 q 66 -13 66 61 q 66 88 73 119 l 109 297 q 112 314 112 324 q 112 355 93 355 q 73 355 27 309 q 25 307 23 307 q 20 307 18 310 q 16 314 19 317 q 54 357 80 376 q 107 395 132 395 q 167 395 167 349 q 167 334 160 297 l 128 138 q 121 100 121 83 q 121 26 164 26 q 197 26 232 68 q 268 110 300 190 q 331 270 350 379 q 353 394 382 394 q 406 394 406 388 l 402 365 q 396 341 391 312 l 350 89 q 347 74 347 62 q 347 30 367 30 q 378 30 396 42 q 415 54 436 76 q 437 77 439 77 z"},"]":{"x_min":0,"x_max":248,"ha":248,"o":"m 261 714 l 116 -107 q 115 -114 114 -116 q 112 -117 107 -117 l -20 -117 q -24 -117 -24 -111 q -24 -105 -20 -105 q 16 -105 34 -99 q 53 -93 62 -78 q 71 -64 76 -34 l 195 642 q 199 666 199 673 q 199 696 183 704 q 167 713 126 713 q 122 713 122 719 q 122 725 126 725 l 256 725 q 261 725 262 723 q 263 721 261 714 z"},"U":{"x_min":0,"x_max":697,"ha":697,"o":"m 721 613 q 689 613 673 608 q 657 602 649 588 q 641 574 636 544 l 554 81 q 550 57 550 50 q 550 27 566 20 q 582 12 627 12 q 631 12 631 6 q 631 0 627 0 l 546 1 l 498 0 q 490 0 488 2 q 485 3 485 9 l 486 19 l 498 87 q 438 35 387 12 q 336 -12 281 -12 q 200 -12 152 30 q 103 73 103 146 q 103 158 107 186 l 170 544 q 174 570 174 576 q 174 598 160 606 q 146 613 110 613 q 108 613 108 619 q 108 625 110 625 l 151 624 q 187 622 209 622 q 233 622 271 624 l 312 625 q 315 625 315 619 q 315 613 312 613 q 280 613 264 607 q 249 601 241 586 q 233 572 228 542 l 171 221 q 165 188 165 161 q 165 90 202 52 q 239 15 308 15 q 355 15 400 36 q 444 57 501 107 l 577 542 q 581 561 581 576 q 581 598 568 606 q 554 613 518 613 q 516 613 516 619 q 516 625 518 625 l 559 624 q 597 622 619 622 q 640 622 678 624 l 721 625 q 723 625 723 619 q 723 613 721 613 z"},"o":{"x_min":0,"x_max":398,"ha":398,"o":"m 28 138 q 28 169 33 193 q 44 251 75 298 q 106 345 150 372 q 194 399 243 399 q 305 399 339 358 q 373 316 373 250 q 373 222 367 193 q 355 132 322 84 q 289 37 244 12 q 200 -14 154 -14 q 95 -14 62 28 q 28 70 28 138 z m 311 149 q 316 181 316 207 q 316 276 290 326 q 263 375 214 375 q 171 375 137 338 q 103 300 90 236 q 84 206 84 175 q 84 108 112 60 q 140 11 189 11 q 231 11 265 48 q 299 85 311 149 z"},"N":{"x_min":0,"x_max":651,"ha":651,"o":"m 687 613 q 651 613 630 590 q 608 568 600 518 l 506 -10 q 506 -12 504 -14 q 501 -15 498 -15 q 492 -15 491 -11 l 202 543 l 196 554 l 119 106 q 115 86 115 67 q 115 38 128 25 q 141 12 170 12 q 172 12 172 6 q 172 0 170 0 q 149 0 138 1 l 91 2 l 48 1 q 35 0 12 0 q 9 0 9 6 q 9 12 12 12 q 48 12 69 34 q 90 56 98 106 l 182 577 q 154 613 119 613 q 116 613 116 619 q 116 625 119 625 l 154 624 q 166 623 185 623 q 201 623 212 624 q 224 625 229 625 q 235 625 238 621 q 241 617 245 606 q 246 603 250 593 q 253 583 258 573 l 505 96 l 579 518 q 583 538 583 557 q 583 586 570 600 q 557 613 529 613 q 526 613 526 619 q 526 625 529 625 l 559 624 q 587 622 607 622 q 623 622 651 624 l 687 625 q 689 625 689 619 q 689 613 687 613 z"},"+":{"x_min":0,"x_max":398,"ha":398,"o":"m 369 190 q 369 183 368 176 q 366 170 364 170 l 219 170 l 219 25 q 219 23 212 22 q 204 20 196 20 q 179 20 179 23 l 179 170 l 34 170 q 32 170 30 176 q 29 183 29 191 q 29 198 30 204 q 32 209 33 209 l 179 209 l 179 354 q 179 356 186 358 q 192 359 199 359 q 206 359 212 358 q 219 356 219 354 l 219 209 l 364 209 q 366 209 368 203 q 369 197 369 190 z"},"G":{"x_min":0,"x_max":631,"ha":631,"o":"m 62 241 q 62 274 68 310 q 85 404 142 478 q 200 553 284 594 q 369 636 464 636 q 506 636 542 626 q 579 617 601 600 q 607 594 607 588 l 606 577 l 597 466 q 596 462 590 462 q 585 462 585 466 q 579 538 538 576 q 496 614 424 614 q 313 614 238 542 q 163 470 141 346 q 133 298 133 262 q 133 185 160 127 q 188 69 238 38 q 289 6 356 6 q 399 6 424 16 q 448 25 463 50 q 478 76 486 126 q 493 172 493 187 q 493 207 486 216 q 478 226 460 230 q 442 233 406 233 q 404 233 402 236 q 401 238 401 241 q 401 244 402 246 q 404 249 406 249 q 473 244 514 244 q 555 244 600 247 q 603 247 604 240 q 604 233 600 233 q 579 234 570 226 q 560 219 554 196 q 548 173 538 116 q 531 72 530 54 q 530 36 529 28 q 528 22 526 20 q 524 19 517 16 q 410 -12 330 -12 q 245 -12 184 20 q 124 52 93 110 q 62 167 62 241 z"},"q":{"x_min":0,"x_max":415,"ha":415,"o":"m 282 -178 q 279 -193 279 -204 q 279 -223 288 -232 q 298 -241 320 -241 q 326 -241 342 -239 l 343 -239 q 346 -239 347 -244 q 348 -249 344 -250 l 168 -275 q 164 -276 163 -270 q 162 -264 166 -263 q 190 -259 200 -253 q 211 -247 217 -232 q 223 -218 229 -185 l 289 155 q 252 76 200 32 q 148 -13 98 -13 q 64 -13 44 13 q 23 39 23 82 q 23 96 24 103 q 33 180 72 248 q 112 317 170 358 q 227 399 286 399 q 305 399 322 392 q 340 385 351 371 q 370 387 376 407 q 377 410 382 409 q 388 408 387 406 z m 306 253 q 310 273 310 294 q 310 364 253 364 q 189 364 141 308 q 93 251 79 147 q 78 138 78 121 q 78 36 130 36 q 169 36 206 65 q 243 94 270 144 q 296 194 306 253 z"},"d":{"x_min":0,"x_max":444,"ha":444,"o":"m 338 89 q 335 74 335 63 q 335 31 355 31 q 375 31 421 77 q 423 79 424 79 q 427 79 430 76 q 432 72 429 69 q 393 29 367 10 q 341 -9 316 -9 q 281 -9 281 35 q 281 51 288 89 l 307 188 q 261 94 210 40 q 158 -13 105 -13 q 69 -13 46 10 q 23 34 23 85 q 23 96 27 126 q 40 198 82 261 q 123 324 180 362 q 238 399 295 399 q 323 399 343 386 l 387 619 q 389 635 389 640 q 389 666 367 666 q 351 666 318 651 l 316 651 q 313 651 312 656 q 310 661 314 662 l 444 725 l 446 725 q 449 725 452 722 q 455 719 454 717 z m 325 300 q 325 331 307 348 q 289 364 258 364 q 193 362 146 311 q 98 260 82 166 q 78 143 78 121 q 78 79 94 58 q 109 36 137 36 q 182 36 226 85 q 269 134 297 199 q 325 264 325 300 z"},"1":{"x_min":0,"x_max":352,"ha":352,"o":"m 31 12 q 73 12 95 18 q 117 23 128 38 q 139 53 145 82 l 217 494 q 220 511 220 521 q 220 545 204 545 q 192 545 172 534 q 153 523 116 498 l 114 497 q 110 497 108 502 q 106 507 109 509 l 283 633 q 286 635 288 635 q 290 635 292 633 q 294 631 293 627 l 197 79 q 194 63 194 52 q 194 28 212 20 q 231 12 284 12 q 286 12 286 6 q 286 0 284 0 q 250 0 231 1 l 158 2 l 83 1 q 64 0 31 0 q 28 0 28 6 q 28 12 31 12 z"},"5":{"x_min":0,"x_max":410,"ha":410,"o":"m 426 656 q 429 656 432 654 q 434 653 433 651 l 411 589 q 407 578 401 575 q 395 572 383 572 l 194 577 q 184 577 178 563 l 129 382 q 182 398 228 398 q 296 398 334 361 q 372 324 372 254 q 372 225 367 200 q 355 133 323 85 q 291 37 246 12 q 201 -12 151 -12 q 109 -12 78 8 q 48 27 26 65 l 26 66 q 26 70 30 72 q 35 75 36 71 q 53 43 81 28 q 109 14 142 14 q 205 14 244 62 q 283 109 297 188 q 302 218 302 239 q 302 299 272 334 q 242 369 182 369 q 165 369 142 366 q 120 363 105 357 q 96 357 98 368 l 171 613 q 173 620 175 622 q 177 625 184 625 q 307 625 348 626 q 388 628 401 634 q 414 639 422 655 q 423 656 426 656 z"}}}
